<svg width="22" height="18" viewBox="0 0 22 18" fill="none" xmlns="http://www.w3.org/2000/svg">
<path d="M0.944395 0.696102C0.149149 1.08796 0.126099 1.19169 0.126099 5.02962C0.126099 8.33738 0.137624 8.48721 0.36813 8.80992C0.794566 9.42076 1.0827 9.48991 3.12268 9.48991H4.96673V12.74C4.96673 15.7827 4.97825 16.0132 5.20876 16.4742C5.34706 16.7739 5.62367 17.0851 5.8657 17.2349C6.29214 17.5 6.29214 17.5 10.9599 17.5C15.6276 17.5 15.6276 17.5 16.0541 17.2349C16.2961 17.0851 16.5727 16.7739 16.711 16.4742C16.9415 16.0132 16.953 15.7827 16.953 12.74V9.48991H18.8317C20.4798 9.48991 20.7449 9.46686 21.0676 9.25941C21.7706 8.83297 21.7937 8.70619 21.7937 4.97199C21.7937 1.87168 21.7706 1.5605 21.5747 1.23779C21.1022 0.465597 21.5862 0.500172 10.9368 0.500172C2.2237 0.500172 1.30168 0.523224 0.944395 0.696102ZM20.6872 1.79101C20.8486 2.00999 20.8716 2.5171 20.8716 5.02962C20.8716 6.86214 20.8255 8.09535 20.7564 8.23365C20.6411 8.44111 20.4913 8.45263 18.7971 8.45263H16.953V7.0235C16.953 5.42148 16.93 5.46758 17.829 5.50216C18.1402 5.51368 18.4859 5.4791 18.6012 5.433C18.8547 5.30623 18.8662 4.69538 18.6127 4.60318C18.3822 4.51098 3.53759 4.51098 3.30708 4.60318C3.05353 4.69538 3.06505 5.30623 3.33013 5.433C3.43386 5.49063 3.79115 5.52521 4.10233 5.51368C4.42504 5.50216 4.74775 5.51368 4.82842 5.53673C4.93215 5.58283 4.96673 5.98622 4.96673 7.0235V8.45263H3.12268C1.42846 8.45263 1.27863 8.44111 1.16338 8.23365C1.09422 8.09535 1.04812 6.86214 1.04812 5.02962C1.04812 2.5171 1.07117 2.00999 1.23253 1.79101L1.40541 1.53745H10.9599H20.5144L20.6872 1.79101ZM7.50229 7.44993C7.50229 8.56789 7.5484 9.48991 7.61755 9.61669C7.75585 9.87025 8.21686 9.90482 8.41279 9.68584C8.48195 9.59364 8.5511 8.76382 8.56262 7.51908L8.5972 5.51368H8.94296H9.28872L9.32329 6.32045C9.35787 7.18485 9.47312 7.41536 9.85346 7.41536C10.2799 7.41536 10.3836 7.19638 10.3836 6.2974V5.44453L13.1266 5.4791L15.8581 5.51368L15.8927 10.7346L15.9158 15.9556L15.6392 16.2322L15.351 16.5203H10.9599H6.56874L6.29214 16.2322L6.004 15.9556V10.7807C6.004 7.934 6.03858 5.58283 6.07316 5.53673C6.11926 5.50216 6.45349 5.4791 6.8223 5.49063L7.50229 5.51368V7.44993Z" fill="#6311CB"/>
</svg>
