<svg width="30" height="29" viewBox="0 0 30 29" fill="none" xmlns="http://www.w3.org/2000/svg">
<path d="M7.12951 1.27613C5.9119 2.52273 5.88291 2.58071 6.34676 3.21851C7.07153 4.26218 6.92657 5.42181 5.96988 6.40749C4.98419 7.36419 4.52034 7.42217 3.27374 6.78437C2.37502 6.32052 2.37502 6.32052 1.30236 7.45116C-0.582037 9.39354 -0.553046 9.56749 2.25906 12.3506C4.72327 14.7858 4.72327 14.7858 3.79557 14.7858C2.17209 14.7858 1.85319 15.2497 1.94016 17.54C2.02713 19.4533 2.05612 19.5403 2.83887 19.7432C5.10015 20.3521 5.04217 23.715 2.7519 24.2078C1.88218 24.4108 1.88218 24.4108 1.88218 26.3531C1.88218 27.4838 2.02713 28.4405 2.23007 28.6434C2.66493 29.0783 27.8579 29.1363 28.5537 28.7014C28.8726 28.4985 28.9886 27.8897 28.9886 26.4981C28.9886 24.6137 28.9596 24.5557 28.1188 24.2658C26.3214 23.657 25.7126 21.8886 26.8142 20.497C27.1331 20.0911 27.7709 19.7143 28.2058 19.6563C28.9596 19.5693 28.9886 19.4823 29.0755 17.7719C29.1915 15.5106 28.6117 14.7858 26.7273 14.7858C25.5097 14.7858 25.3357 14.6699 20.9871 10.4952C11.884 1.82695 9.82565 0.000534058 9.07189 0.000534058C8.63703 0.000534058 7.91226 0.464386 7.12951 1.27613ZM11.1302 2.43576C12.4928 3.82731 12.6667 4.08823 12.3189 4.4941C11.797 5.1319 12.3768 5.7697 13.0146 5.24786C13.5655 4.78401 13.3335 4.63906 19.6535 10.4372L24.2341 14.6409L15.1889 14.7278C7.18749 14.7858 6.08584 14.7278 5.62199 14.322C5.12915 13.8871 5.12915 13.8001 5.56401 13.1623C5.94089 12.5825 5.94089 12.4666 5.593 12.4666C5.36107 12.4666 5.04217 12.6115 4.83924 12.8145C4.60731 13.0464 4.05649 12.7275 2.60695 11.4809C1.56328 10.5532 0.722548 9.71244 0.722548 9.62547C0.722548 9.50951 1.12842 8.98767 1.62126 8.46584C2.433 7.56713 2.51998 7.53813 3.44768 7.85703C5.41905 8.5818 7.36143 7.3352 7.59336 5.18988C7.68033 4.40713 7.59336 3.59539 7.39043 3.18952C7.10052 2.63869 7.1585 2.43576 7.85428 1.71099C8.28914 1.24714 8.86895 0.870256 9.12987 0.870256C9.3618 0.870256 10.2895 1.59503 11.1302 2.43576ZM7.97024 16.3803C7.97024 16.8442 8.14419 17.1051 8.4051 17.1051C8.66602 17.1051 8.83996 16.8442 8.83996 16.3803V15.6556L18.4939 15.7135L28.1188 15.8005L28.2058 17.308C28.2928 18.5836 28.2058 18.8445 27.8289 18.8445C27.539 18.8445 26.9012 19.2794 26.3504 19.8302C25.5966 20.584 25.3647 21.0478 25.3647 21.8886C25.3647 23.1932 26.2054 24.4398 27.3941 24.9326C28.2348 25.2805 28.2928 25.3965 28.2058 26.6431L28.1188 27.9766L18.4939 28.0636L8.86895 28.1216L8.78198 27.4838C8.63703 26.5561 7.97024 26.4691 7.97024 27.3678V28.1216H5.36107H2.7519V26.701C2.7519 25.4254 2.83887 25.2225 3.53465 24.8746C5.99887 23.657 6.02786 20.1491 3.59263 19.0765C2.83887 18.7286 2.7519 18.5546 2.7519 17.366C2.7519 16.6412 2.83887 15.9455 2.95484 15.8585C3.04181 15.7425 4.23043 15.6556 5.56401 15.6556C7.94125 15.6556 7.97024 15.6556 7.97024 16.3803Z" fill="url(#paint0_linear_469_10187)"/>
<path d="M10.4349 6.66907C9.94202 7.1909 9.94202 7.24888 10.4059 7.42283C10.9857 7.65476 11.9134 6.872 11.6235 6.40815C11.3336 5.9443 11.0147 6.00228 10.4349 6.66907Z" fill="url(#paint1_linear_469_10187)"/>
<path d="M8.72445 8.66947C8.02867 9.45223 8.40555 10.061 9.15931 9.39424C9.71013 8.9014 9.91307 8.11865 9.47821 8.11865C9.33325 8.11865 8.98536 8.37957 8.72445 8.66947Z" fill="url(#paint2_linear_469_10187)"/>
<path d="M6.66576 10.7286C6.05695 11.3954 6.31787 11.8592 7.04264 11.4244C7.59347 11.0765 7.88337 10.1488 7.44851 10.1488C7.30356 10.1488 6.95567 10.4097 6.66576 10.7286Z" fill="url(#paint3_linear_469_10187)"/>
<path d="M14.2028 17.6567C12.0864 18.5264 12.8402 22.3242 15.1015 22.3242C16.7829 22.3242 17.5657 19.4251 16.2321 18.1206C15.5073 17.3668 15.1594 17.2798 14.2028 17.6567ZM15.7393 19.6571C15.8262 20.5848 15.4204 21.4545 14.8985 21.4545C14.4637 21.4545 14.0288 20.0339 14.2317 19.2512C14.5217 18.1206 15.6233 18.4105 15.7393 19.6571Z" fill="url(#paint4_linear_469_10187)"/>
<path d="M19.5954 17.8026C19.3925 18.0345 18.1459 20.0059 16.8123 22.1802C14.8119 25.4272 14.493 26.123 14.9859 26.036C15.3917 25.978 16.2035 24.9343 17.566 22.76C20.4071 18.2085 20.813 17.3967 20.3202 17.3967C20.1172 17.3967 19.7693 17.5707 19.5954 17.8026Z" fill="url(#paint5_linear_469_10187)"/>
<path d="M7.96973 19.1345C7.96973 19.7433 8.08569 20.0043 8.34661 19.9173C8.52055 19.8593 8.6945 19.5114 8.6945 19.1345C8.6945 18.7577 8.52055 18.4098 8.34661 18.3228C8.08569 18.2648 7.96973 18.5257 7.96973 19.1345Z" fill="url(#paint6_linear_469_10187)"/>
<path d="M7.96973 22.033C7.96973 22.6418 8.08569 22.9027 8.34661 22.8157C8.52055 22.7577 8.6945 22.4099 8.6945 22.033C8.6945 21.6561 8.52055 21.3082 8.34661 21.2212C8.08569 21.1632 7.96973 21.4242 7.96973 22.033Z" fill="url(#paint7_linear_469_10187)"/>
<path d="M18.755 22.1217C18.0013 22.9334 17.9143 24.4989 18.5811 25.4556C19.0159 26.0934 20.4945 26.3254 21.1902 25.8615C21.828 25.4556 22.2339 24.267 22.06 23.3973C21.6831 21.4839 19.9726 20.8171 18.755 22.1217ZM20.7264 23.2233C21.0163 24.441 20.7264 25.2527 20.0306 25.1657C19.5668 25.1077 19.3928 24.8468 19.3348 24.1221C19.1609 22.4696 20.3785 21.7158 20.7264 23.2233Z" fill="url(#paint8_linear_469_10187)"/>
<path d="M7.96973 24.9613C7.96973 26.063 8.66551 25.976 8.78147 24.8454C8.83945 24.2945 8.75248 24.0626 8.43358 24.0626C8.11468 24.0626 7.96973 24.3525 7.96973 24.9613Z" fill="url(#paint9_linear_469_10187)"/>
<defs>
<linearGradient id="paint0_linear_469_10187" x1="14.5448" y1="0.000534058" x2="14.5448" y2="29" gradientUnits="userSpaceOnUse">
<stop stop-color="#6311CB"/>
<stop offset="1" stop-color="#3725EA"/>
</linearGradient>
<linearGradient id="paint1_linear_469_10187" x1="10.8699" y1="6.10616" x2="10.8699" y2="7.46484" gradientUnits="userSpaceOnUse">
<stop stop-color="#6311CB"/>
<stop offset="1" stop-color="#3725EA"/>
</linearGradient>
<linearGradient id="paint2_linear_469_10187" x1="9.03554" y1="8.11865" x2="9.03554" y2="9.67969" gradientUnits="userSpaceOnUse">
<stop stop-color="#6311CB"/>
<stop offset="1" stop-color="#3725EA"/>
</linearGradient>
<linearGradient id="paint3_linear_469_10187" x1="6.99257" y1="10.1488" x2="6.99257" y2="11.5938" gradientUnits="userSpaceOnUse">
<stop stop-color="#6311CB"/>
<stop offset="1" stop-color="#3725EA"/>
</linearGradient>
<linearGradient id="paint4_linear_469_10187" x1="14.93" y1="17.4391" x2="14.93" y2="22.3242" gradientUnits="userSpaceOnUse">
<stop stop-color="#6311CB"/>
<stop offset="1" stop-color="#3725EA"/>
</linearGradient>
<linearGradient id="paint5_linear_469_10187" x1="17.6401" y1="17.3967" x2="17.6401" y2="26.043" gradientUnits="userSpaceOnUse">
<stop stop-color="#6311CB"/>
<stop offset="1" stop-color="#3725EA"/>
</linearGradient>
<linearGradient id="paint6_linear_469_10187" x1="8.33211" y1="18.3149" x2="8.33211" y2="19.9336" gradientUnits="userSpaceOnUse">
<stop stop-color="#6311CB"/>
<stop offset="1" stop-color="#3725EA"/>
</linearGradient>
<linearGradient id="paint7_linear_469_10187" x1="8.33211" y1="21.2133" x2="8.33211" y2="22.832" gradientUnits="userSpaceOnUse">
<stop stop-color="#6311CB"/>
<stop offset="1" stop-color="#3725EA"/>
</linearGradient>
<linearGradient id="paint8_linear_469_10187" x1="20.1156" y1="21.4452" x2="20.1156" y2="26.1055" gradientUnits="userSpaceOnUse">
<stop stop-color="#6311CB"/>
<stop offset="1" stop-color="#3725EA"/>
</linearGradient>
<linearGradient id="paint9_linear_469_10187" x1="8.38397" y1="24.0626" x2="8.38397" y2="25.7422" gradientUnits="userSpaceOnUse">
<stop stop-color="#6311CB"/>
<stop offset="1" stop-color="#3725EA"/>
</linearGradient>
</defs>
</svg>
