<svg width="15" height="14" viewBox="0 0 15 14" fill="none" xmlns="http://www.w3.org/2000/svg">
<path d="M4.87079 0.752478C2.72668 1.1627 0.970923 1.49909 0.968188 1.49909C0.965453 1.50182 0.929901 1.53464 0.891613 1.57566L0.823242 1.65224V6.99063V12.3318L0.899817 12.4165L0.976393 12.504L4.90088 13.2507C7.05866 13.6609 8.87185 14 8.93202 14C8.99218 14 9.07149 13.9809 9.10431 13.9562C9.23832 13.8633 9.24652 13.8058 9.24652 13.0428V12.3318H11.6477C13.2366 12.3318 14.0817 12.3208 14.1501 12.3017C14.2841 12.2661 14.4372 12.1294 14.5001 11.9899C14.5494 11.886 14.5521 11.6617 14.5521 6.99883C14.5521 2.33594 14.5494 2.11169 14.5001 2.00776C14.4372 1.86829 14.2841 1.73155 14.1501 1.69599C14.0817 1.67685 13.2366 1.66591 11.6477 1.66591H9.24926L9.24105 0.911098L9.23285 0.156284L9.1426 0.0769739C9.06876 0.0086031 9.03321 -0.0023365 8.91014 0.000398636C8.83356 0.00313377 7.0149 0.339518 4.87079 0.752478ZM8.63939 10.1794L8.63119 13.36L5.02121 12.6736L1.41123 11.9872V6.99883V2.0105L5.02121 1.32406L8.63119 0.637614L8.63939 3.81822C8.64212 5.56851 8.64212 8.42915 8.63939 10.1794ZM13.9641 6.99883V11.7438L11.6067 11.752L9.24652 11.7574V11.0601V10.3627H9.80716H10.3678V10.0755V9.78836H9.80716H9.24652V8.95424V8.12011H9.80716H10.3678V7.83296V7.5458H9.80716H9.24652V6.86209V6.17838H9.80716H10.3678V5.87755V5.57672H9.80716H9.24652V4.89301V4.2093H9.80716H10.3678V3.92215V3.63499H9.80716H9.24652V2.93761V2.24023L11.6067 2.2457L13.9641 2.2539V6.99883Z" fill="#2E6F42"/>
<path d="M2.68293 4.38457C2.68293 4.39278 3.02205 4.97803 3.43501 5.68909C3.84797 6.40014 4.18708 6.9936 4.18708 7.00727C4.18708 7.02095 3.82609 7.60073 3.38304 8.29538C2.94 8.99003 2.56806 9.57802 2.55713 9.60536C2.54072 9.64912 2.58447 9.65186 3.25724 9.64639L3.97103 9.63818L4.41408 8.81773C4.65474 8.36648 4.8872 7.9043 4.92822 7.79217L4.99933 7.58706L5.02121 7.70192C5.04035 7.81678 5.15248 8.04651 5.70492 9.08575L6.00301 9.65186H6.7086C7.09695 9.65186 7.41419 9.64092 7.41419 9.62724C7.41419 9.61357 7.05319 9.01464 6.61288 8.29538L5.81431 6.98539L6.56092 5.75472C6.97114 5.07648 7.32394 4.49123 7.34581 4.44747L7.38957 4.37363H6.71133L6.0331 4.37637L5.62287 5.14485C5.39862 5.56602 5.17436 6.01453 5.1306 6.14033L5.04856 6.36732L4.98566 6.19229C4.95284 6.09384 4.75046 5.64533 4.53441 5.19408L4.14606 4.37363H3.41586C3.01111 4.37363 2.68293 4.3791 2.68293 4.38457Z" fill="#2E6F42"/>
<path d="M10.8875 3.92232V4.20947H12.0224H13.1574V3.92232V3.63516H12.0224H10.8875V3.92232Z" fill="#2E6F42"/>
<path d="M10.8875 5.87739V6.17822H12.0224H13.1574V5.87739V5.57656H12.0224H10.8875V5.87739Z" fill="#2E6F42"/>
<path d="M10.8875 7.83296V8.12012H12.0224H13.1574V7.83296V7.5458H12.0224H10.8875V7.83296Z" fill="#2E6F42"/>
<path d="M10.8875 10.0756V10.3628H12.0224H13.1574V10.0756V9.78848H12.0224H10.8875V10.0756Z" fill="#2E6F42"/>
</svg>
