<svg width="31" height="22" viewBox="0 0 31 22" fill="none" xmlns="http://www.w3.org/2000/svg">
<path d="M2.44144 0.0727863C1.22221 0.391182 0.282558 1.38132 0.0573511 2.59277C-0.000892053 2.89175 -0.00477493 3.72657 0.00299082 10.7662L0.0146395 18.6096L0.103946 18.9009C0.259261 19.3979 0.515531 19.8405 0.86499 20.2094C1.34647 20.718 1.793 20.9898 2.44144 21.1607L2.77148 21.25H15.5073H28.2432L28.5577 21.1646C29.7419 20.8501 30.6234 19.9531 30.934 18.7572C30.9961 18.5087 31 17.9845 31 10.6109C31 3.05872 30.9961 2.71703 30.9262 2.45687C30.8292 2.08412 30.5651 1.53663 30.3399 1.23765C29.9516 0.728992 29.2838 0.274696 28.6314 0.0805511C28.4101 0.0145435 27.7656 0.0106602 15.5656 0.00289345C2.9268 -0.00487137 2.72877 -0.00487137 2.44144 0.0727863ZM9.70242 2.45687V3.63727L9.97034 3.79646C10.1218 3.88189 10.2654 3.95955 10.2926 3.9712C10.3198 3.98284 10.4868 3.90907 10.6654 3.812L10.9838 3.6295V2.45299V1.27259H19.5183C28.8644 1.27259 28.2587 1.25706 28.7052 1.4978C28.9654 1.6337 29.3537 2.02199 29.4779 2.26273C29.707 2.72091 29.6992 2.56948 29.6992 6.26986V9.65961H23.3585H17.0178L16.7887 10.0285C16.6605 10.2343 16.447 10.5216 16.3111 10.6692L16.0626 10.941H22.8809H29.6992V14.6685C29.6992 18.3184 29.6992 18.4039 29.6216 18.6329C29.4236 19.2193 28.977 19.6619 28.3791 19.8793L28.1267 19.9687H19.5649H11.0032L10.9915 16.8429L10.9838 13.7133L10.6537 13.3872L10.3237 13.0571L10.013 13.3678L9.70242 13.6745L9.69465 16.8235L9.683 19.9687H6.3049H2.9268L2.65111 19.8832C2.14246 19.7201 1.72699 19.3707 1.48237 18.8892C1.28046 18.4854 1.27657 18.4699 1.27657 14.5598V10.941H2.9268H4.5809L4.3091 10.6226C4.16155 10.4478 3.95576 10.1605 3.85092 9.98577L3.66454 9.66349L2.46862 9.65961H1.27269L1.28434 6.23103C1.29599 2.82186 1.29599 2.80633 1.38141 2.58501C1.62215 1.94822 2.10363 1.4978 2.72489 1.33084C2.89185 1.28813 3.52864 1.27648 6.31655 1.27648L9.70242 1.27259V2.45687Z" fill="url(#paint0_linear_469_10160)"/>
<path d="M7.25581 4.5218C5.9201 4.74701 4.84843 5.7682 4.57663 7.07673C4.45626 7.64752 4.54556 8.4668 4.79018 9.01817C5.14353 9.81028 5.91234 10.5092 6.71997 10.7655C7.16262 10.9053 7.43831 10.9402 8.14887 10.9402L8.78955 10.9441L7.3956 12.3225L6.00164 13.7048L6.44429 14.1475C6.68503 14.3921 6.90247 14.5901 6.918 14.5901C6.93742 14.5901 7.71399 13.8368 8.642 12.9205L10.3272 11.2508L12.0434 12.9438L13.7596 14.6328L14.1945 14.1746C14.4353 13.9222 14.6333 13.7048 14.6333 13.6932C14.6333 13.6776 14.012 13.0564 13.251 12.3147L11.8687 10.9596L12.6375 10.9363C13.5267 10.913 13.7596 10.8664 14.3032 10.614C16.0195 9.8064 16.6679 7.63975 15.67 6.04C15.1808 5.25566 14.3731 4.70041 13.4878 4.53733C12.4744 4.35095 11.395 4.70041 10.6261 5.46922L10.3233 5.7682L10.0631 5.4964C9.42634 4.8402 8.59929 4.48685 7.71399 4.4985C7.51596 4.50239 7.31017 4.51403 7.25581 4.5218ZM8.39349 5.89246C8.90603 6.0866 9.3681 6.52536 9.54283 6.99519C9.67484 7.35242 9.70591 7.68246 9.69426 8.68813L9.68261 9.63943L8.6653 9.65108C7.8926 9.65885 7.58197 9.6472 7.37618 9.60449C6.45594 9.41034 5.81915 8.63765 5.81915 7.71352C5.81915 6.83211 6.42876 6.05165 7.27911 5.83421C7.58974 5.75655 8.0984 5.78373 8.39349 5.89246ZM13.2782 5.8148C14.2799 6.00506 14.9827 6.99519 14.8274 7.99697C14.7459 8.54446 14.3731 9.09971 13.9227 9.36375C13.4917 9.61613 13.3985 9.63167 12.1405 9.65108L10.9834 9.66661V8.56387C10.9834 7.34465 11.0028 7.18934 11.2241 6.77775C11.294 6.64962 11.4493 6.45159 11.5891 6.32345C12.0667 5.87692 12.6569 5.69831 13.2782 5.8148Z" fill="url(#paint1_linear_469_10160)"/>
<path d="M19.705 16.1893C19.5303 16.2903 19.3711 16.5543 19.3711 16.7368C19.3711 16.9426 19.5148 17.1833 19.705 17.2921C19.8487 17.3775 19.9147 17.393 20.0739 17.3775C20.6796 17.3192 20.8699 16.5737 20.3729 16.2087C20.2098 16.0884 19.8953 16.0806 19.705 16.1893Z" fill="url(#paint2_linear_469_10160)"/>
<path d="M21.6426 16.1912C21.0562 16.529 21.3475 17.4415 22.0231 17.3755C22.621 17.3211 22.8074 16.5756 22.3143 16.2106C22.1512 16.0903 21.8367 16.0825 21.6426 16.1912Z" fill="url(#paint3_linear_469_10160)"/>
<path d="M23.584 16.1911C23.4092 16.2921 23.2539 16.5522 23.2539 16.7464C23.2539 16.9405 23.4092 17.2007 23.584 17.3016C23.7043 17.3715 23.782 17.387 23.9451 17.3754C24.2984 17.3521 24.5353 17.0958 24.5353 16.7464C24.5353 16.3969 24.2984 16.1406 23.9451 16.1173C23.782 16.1057 23.7043 16.1212 23.584 16.1911Z" fill="url(#paint4_linear_469_10160)"/>
<path d="M25.6224 16.1329C25.3778 16.2299 25.1953 16.5017 25.1953 16.7658C25.1953 16.956 25.3429 17.1929 25.5254 17.3016C25.6457 17.3715 25.7234 17.387 25.8826 17.3754C26.4922 17.3327 26.6941 16.5794 26.1932 16.2066C26.0923 16.129 25.7389 16.0824 25.6224 16.1329Z" fill="url(#paint5_linear_469_10160)"/>
<defs>
<linearGradient id="paint0_linear_469_10160" x1="15.5" y1="-0.000389099" x2="15.5" y2="21.25" gradientUnits="userSpaceOnUse">
<stop stop-color="#6311CB"/>
<stop offset="1" stop-color="#3725EA"/>
</linearGradient>
<linearGradient id="paint1_linear_469_10160" x1="10.3323" y1="4.48808" x2="10.3323" y2="14.6328" gradientUnits="userSpaceOnUse">
<stop stop-color="#6311CB"/>
<stop offset="1" stop-color="#3725EA"/>
</linearGradient>
<linearGradient id="paint2_linear_469_10160" x1="20.014" y1="16.1128" x2="20.014" y2="17.3828" gradientUnits="userSpaceOnUse">
<stop stop-color="#6311CB"/>
<stop offset="1" stop-color="#3725EA"/>
</linearGradient>
<linearGradient id="paint3_linear_469_10160" x1="21.9621" y1="16.1147" x2="21.9621" y2="17.3789" gradientUnits="userSpaceOnUse">
<stop stop-color="#6311CB"/>
<stop offset="1" stop-color="#3725EA"/>
</linearGradient>
<linearGradient id="paint4_linear_469_10160" x1="23.8946" y1="16.1138" x2="23.8946" y2="17.3789" gradientUnits="userSpaceOnUse">
<stop stop-color="#6311CB"/>
<stop offset="1" stop-color="#3725EA"/>
</linearGradient>
<linearGradient id="paint5_linear_469_10160" x1="25.8357" y1="16.1118" x2="25.8357" y2="17.3789" gradientUnits="userSpaceOnUse">
<stop stop-color="#6311CB"/>
<stop offset="1" stop-color="#3725EA"/>
</linearGradient>
</defs>
</svg>
