<svg width="29" height="20" viewBox="0 0 29 20" fill="none" xmlns="http://www.w3.org/2000/svg">
<path d="M28.2216 2.79883C28.2216 2.05654 27.9267 1.34464 27.4018 0.81976C26.8769 0.294876 26.165 0 25.4227 0H2.79883C2.05654 0 1.34464 0.294876 0.819759 0.81976C0.294876 1.34464 0 2.05654 0 2.79883V17.2012C0 17.9435 0.294876 18.6554 0.819759 19.1802C1.34464 19.7051 2.05654 20 2.79883 20H25.4227C26.165 20 26.8769 19.7051 27.4018 19.1802C27.9267 18.6554 28.2216 17.9435 28.2216 17.2012V2.79883ZM27.2886 8.97959H0.932945V6.18076H27.2886V8.97959ZM25.4227 19.0671H2.79883C1.76997 19.0671 0.932945 18.2009 0.932945 17.172V9.91254H27.2886V17.172C27.2886 18.2009 26.4516 19.0671 25.4227 19.0671ZM2.79883 0.932945H25.4227C26.4516 0.932945 27.2886 1.74082 27.2886 2.76968V5.24781H0.932945V2.76968C0.932945 1.74082 1.76997 0.932945 2.79883 0.932945Z" fill="url(#paint0_linear_469_10208)"/>
<path d="M11.7782 12.8883C11.7782 12.7646 11.7291 12.646 11.6416 12.5585C11.5541 12.471 11.4355 12.4219 11.3117 12.4219H4.02311C3.8994 12.4219 3.78075 12.471 3.69327 12.5585C3.60579 12.646 3.55664 12.7646 3.55664 12.8883V15.3956C3.55664 15.5194 3.60579 15.638 3.69327 15.7255C3.78075 15.813 3.8994 15.8621 4.02311 15.8621H11.3117C11.4355 15.8621 11.5541 15.813 11.6416 15.7255C11.7291 15.638 11.7782 15.5194 11.7782 15.3956V12.8883ZM10.8453 14.9292H4.48959V13.3548H10.8453V14.9292Z" fill="url(#paint1_linear_469_10208)"/>
<path d="M19.4753 12.5938C19.3515 12.5938 19.2329 12.6429 19.1454 12.7304C19.0579 12.8179 19.0088 12.9365 19.0088 13.0602V15.2177C19.0088 15.3414 19.0579 15.46 19.1454 15.5475C19.2329 15.635 19.3515 15.6841 19.4753 15.6841C19.599 15.6841 19.7176 15.635 19.8051 15.5475C19.8926 15.46 19.9417 15.3414 19.9417 15.2177V13.0602C19.9417 12.9365 19.8926 12.8179 19.8051 12.7304C19.7176 12.6429 19.599 12.5938 19.4753 12.5938Z" fill="url(#paint2_linear_469_10208)"/>
<path d="M21.8073 12.5938C21.6836 12.5938 21.5649 12.6429 21.4774 12.7304C21.39 12.8179 21.3408 12.9365 21.3408 13.0602V15.2177C21.3408 15.3414 21.39 15.46 21.4774 15.5475C21.5649 15.635 21.6836 15.6841 21.8073 15.6841C21.931 15.6841 22.0497 15.635 22.1371 15.5475C22.2246 15.46 22.2738 15.3414 22.2738 15.2177V13.0602C22.2738 12.9365 22.2246 12.8179 22.1371 12.7304C22.0497 12.6429 21.931 12.5938 21.8073 12.5938Z" fill="url(#paint3_linear_469_10208)"/>
<path d="M24.1403 12.5938C24.0166 12.5938 23.8979 12.6429 23.8105 12.7304C23.723 12.8179 23.6738 12.9365 23.6738 13.0602V15.2177C23.6738 15.3414 23.723 15.46 23.8105 15.5475C23.8979 15.635 24.0166 15.6841 24.1403 15.6841C24.264 15.6841 24.3827 15.635 24.4701 15.5475C24.5576 15.46 24.6068 15.3414 24.6068 15.2177V13.0602C24.6068 12.9365 24.5576 12.8179 24.4701 12.7304C24.3827 12.6429 24.264 12.5938 24.1403 12.5938Z" fill="url(#paint4_linear_469_10208)"/>
<defs>
<linearGradient id="paint0_linear_469_10208" x1="14.1108" y1="20" x2="14.1108" y2="0" gradientUnits="userSpaceOnUse">
<stop stop-color="#6311CB"/>
<stop offset="1" stop-color="#3725EA"/>
</linearGradient>
<linearGradient id="paint1_linear_469_10208" x1="7.66743" y1="15.8621" x2="7.66743" y2="12.4219" gradientUnits="userSpaceOnUse">
<stop stop-color="#6311CB"/>
<stop offset="1" stop-color="#3725EA"/>
</linearGradient>
<linearGradient id="paint2_linear_469_10208" x1="19.4753" y1="15.6841" x2="19.4753" y2="12.5938" gradientUnits="userSpaceOnUse">
<stop stop-color="#6311CB"/>
<stop offset="1" stop-color="#3725EA"/>
</linearGradient>
<linearGradient id="paint3_linear_469_10208" x1="21.8073" y1="15.6841" x2="21.8073" y2="12.5938" gradientUnits="userSpaceOnUse">
<stop stop-color="#6311CB"/>
<stop offset="1" stop-color="#3725EA"/>
</linearGradient>
<linearGradient id="paint4_linear_469_10208" x1="24.1403" y1="15.6841" x2="24.1403" y2="12.5938" gradientUnits="userSpaceOnUse">
<stop stop-color="#6311CB"/>
<stop offset="1" stop-color="#3725EA"/>
</linearGradient>
</defs>
</svg>
