<svg width="12" height="14" viewBox="0 0 12 14" fill="none" xmlns="http://www.w3.org/2000/svg">
<path d="M2.49709 0.039444C2.0323 0.131842 1.6291 0.448236 1.40511 0.893428C1.22591 1.25182 1.23991 0.985826 1.23151 4.55576L1.22311 7.8093L0.836718 7.8177L0.453125 7.8261V9.88406V11.942L0.833918 11.9504L1.21471 11.9588L1.23151 12.3284C1.24551 12.7316 1.28471 12.8772 1.45271 13.1936C1.5703 13.4148 1.8363 13.6808 2.05749 13.7984C2.14989 13.8488 2.32349 13.9132 2.44389 13.944C2.65388 13.9972 2.76588 14 6.55421 14C10.8409 14 10.6561 14.0056 11.0201 13.8264C11.2693 13.7004 11.5689 13.4036 11.7005 13.146C11.9161 12.7288 11.9021 13.1404 11.8993 7.8961L11.8965 3.20618L11.2021 2.523C10.8185 2.1478 10.1269 1.46742 9.66495 1.01103C9.20296 0.551834 8.77737 0.137442 8.71857 0.0898428L8.61217 0.000244141L5.63863 0.00304413C3.44907 0.00584412 2.62028 0.0142441 2.49709 0.039444ZM7.99898 1.32182C7.99898 1.93501 8.01018 2.1926 8.04098 2.3382C8.16138 2.90939 8.61777 3.41338 9.18896 3.60378C9.41296 3.67938 9.41296 3.67938 10.4293 3.69057L11.4429 3.70177V8.06409C11.4429 11.2084 11.4345 12.4712 11.4121 12.5776C11.3337 12.9416 11.1041 13.244 10.7849 13.4008L10.6169 13.482H6.57101H2.52509L2.36269 13.4064C2.14429 13.3028 1.9203 13.0872 1.8139 12.8688C1.7131 12.6616 1.6571 12.334 1.6851 12.11L1.7019 11.956H4.40945C7.3102 11.956 7.2682 11.956 7.59299 11.8132C7.97938 11.6424 8.32098 11.3092 8.51977 10.906C8.69337 10.5532 8.75497 10.2873 8.75497 9.88686C8.75497 9.22607 8.54217 8.70808 8.09978 8.29649C7.88979 8.10049 7.73579 8.00249 7.46979 7.8989L7.285 7.8261L4.48785 7.8121L1.6879 7.7981L1.6851 5.02615C1.6823 3.50018 1.6907 2.04701 1.6991 1.79221C1.7159 1.37222 1.7215 1.31622 1.7915 1.16782C1.9231 0.879428 2.24789 0.599433 2.52509 0.529434C2.57269 0.518234 3.82146 0.509835 5.30543 0.507035L7.99898 0.504235V1.32182ZM9.86095 1.87901C10.4293 2.4418 10.9669 2.96819 11.0509 3.04659L11.2049 3.19218H10.3621C9.59775 3.19218 9.49976 3.18658 9.33736 3.13619C9.00136 3.03259 8.73257 2.79739 8.57857 2.4698L8.48897 2.2822L8.48057 1.40022L8.47217 0.518234L8.64857 0.686232C8.74377 0.77863 9.28976 1.31622 9.86095 1.87901ZM3.10748 8.90128C3.33987 9.01607 3.46307 9.22327 3.46307 9.50327C3.46307 9.74126 3.33707 9.94006 3.11308 10.0605C3.02068 10.1109 2.93948 10.1221 2.64548 10.1305L2.28989 10.1417L2.28149 10.5364L2.27309 10.934L2.09949 10.9424L1.9231 10.9508V9.88406V8.81448L2.44949 8.82568C2.92828 8.83408 2.98428 8.84248 3.10748 8.90128ZM4.84624 8.86208C5.06464 8.91808 5.24663 9.05807 5.36703 9.25687C5.46223 9.41647 5.46503 9.42207 5.47343 9.80286C5.48743 10.3152 5.45103 10.4468 5.23264 10.668C5.00584 10.892 4.90224 10.9228 4.33945 10.9396L3.88306 10.9536V9.88686V8.82008H4.28345C4.55225 8.82008 4.73704 8.83408 4.84624 8.86208ZM7.299 8.97408V9.12807H6.80901H6.31902V9.43607V9.74406H6.74181H7.1618L7.1534 9.88966L7.145 10.0381L6.73341 10.0465L6.32182 10.0549L6.31342 10.4944L6.30502 10.934H6.13702H5.96902L5.96062 9.87566L5.95502 8.82008H6.62701H7.299V8.97408Z" fill="#EE1B24"/>
<path d="M2.28699 9.49453V9.86133L2.58938 9.85013C2.99257 9.83613 3.09897 9.76333 3.09897 9.49174C3.09897 9.20894 2.98137 9.12774 2.57538 9.12774H2.28699V9.49453Z" fill="#EE1B24"/>
<path d="M4.24707 9.88392V10.6455L4.52147 10.6343C4.77066 10.6259 4.80706 10.6175 4.89666 10.5503C5.07025 10.4159 5.11505 10.2815 5.11505 9.88392C5.11505 9.48633 5.07025 9.35193 4.89666 9.21753C4.80706 9.15034 4.77066 9.14194 4.52147 9.13354L4.24707 9.12234V9.88392Z" fill="#EE1B24"/>
</svg>
